<svg width="275" height="386" viewBox="0 0 275 386" fill="none" xmlns="http://www.w3.org/2000/svg">
<g clip-path="url(#clip0_3740_77)">
<path d="M134.226 261.206V231.859H118.052C115.33 239.28 111.783 246.31 107.529 252.834C105.801 250.734 104.861 248.202 104.623 245.093C106.683 241.551 108.529 237.873 110.141 234.068C110.453 233.333 110.753 232.596 111.046 231.859H104.558V225.326H113.362C116.345 215.864 117.856 206.015 117.856 195.932C117.856 182.7 115.258 169.869 110.141 157.792C105.196 146.125 98.1136 135.644 89.09 126.645C89.0069 126.562 88.9208 126.482 88.8377 126.399C67.7243 128.419 46.786 131.75 26.192 136.376V223.638C26.192 224.201 26.1979 224.763 26.2068 225.329H52.3842V231.862H26.471C27.6791 249.799 32.8172 267.374 41.5202 283.14C42.8827 285.61 44.3312 288.027 45.8599 290.39C49.9353 289.264 53.9455 287.879 57.8725 286.22C60.2412 285.222 62.5565 284.129 64.8243 282.957C66.2579 284.692 67.8133 286.333 69.4874 287.884C63.2629 291.251 56.6555 294.003 49.7483 296.067C58.9263 308.673 70.4729 319.497 83.7085 327.827C99.9332 338.038 116.9 347.399 134.226 355.705V306.964C135.348 306.976 136.443 306.982 137.5 306.982C138.557 306.982 139.652 306.976 140.774 306.964V355.705C158.1 347.396 175.064 338.035 191.288 327.827C204.524 319.5 216.07 308.673 225.248 296.067C218.344 294.003 211.737 291.251 205.509 287.884C207.186 286.336 208.742 284.692 210.172 282.957C212.44 284.129 214.758 285.219 217.124 286.22C221.051 287.879 225.061 289.264 229.137 290.39C230.663 288.027 232.114 285.61 233.476 283.14C242.176 267.374 247.318 249.796 248.526 231.862H222.615V225.329H248.793C248.802 224.766 248.808 224.204 248.808 223.638V136.376C228.214 131.75 207.275 128.419 186.162 126.399C186.079 126.482 185.993 126.562 185.91 126.645C176.889 135.644 169.804 146.125 164.859 157.792C159.738 169.869 157.144 182.7 157.144 195.932C157.144 206.015 158.655 215.864 161.638 225.326H170.442V231.859H163.953C164.247 232.599 164.547 233.336 164.859 234.068C166.473 237.873 168.317 241.551 170.377 245.093C170.136 248.199 169.195 250.734 167.471 252.834C163.217 246.31 159.673 239.283 156.948 231.859H140.774V261.206C139.708 261.238 138.619 261.253 137.5 261.253C136.381 261.253 135.291 261.235 134.226 261.206ZM176.987 243.432V163.271H216.07V244.116C216.07 294.69 170.38 300.449 137.5 300.449C104.62 300.449 58.9292 294.69 58.9292 244.116V163.271H98.0127V243.432C98.0127 262.396 116.363 267.786 137.5 267.786C158.637 267.786 176.987 262.396 176.987 243.432ZM243.313 110.242C241.589 109.887 240.725 109.712 238.997 109.368C238.997 106.108 238.997 102.847 238.997 99.5841C240.725 99.9246 241.589 100.099 243.313 100.458C245.109 100.828 246.457 101.503 247.356 102.465C248.253 103.428 248.701 104.772 248.701 106.493C248.701 108.213 248.253 109.359 247.356 109.937C246.46 110.514 245.112 110.612 243.313 110.242ZM154.796 225.326H140.771V124.086C153.143 124.166 165.497 124.696 177.8 125.668C160.896 144.226 150.593 168.877 150.593 195.929C150.593 206.136 152.062 216.001 154.796 225.323V225.326ZM124.404 195.932C124.404 168.88 114.101 144.229 97.1964 125.671C109.5 124.696 121.854 124.166 134.226 124.089V225.329H120.201C122.934 216.004 124.404 206.139 124.404 195.935V195.932ZM6.54785 88.2836V223.635C6.54785 272.633 31.6893 318.259 73.2334 344.396C93.7383 357.298 115.205 368.821 137.503 378.833C159.798 368.821 181.264 357.298 201.772 344.396C243.313 318.256 268.458 272.633 268.458 223.635V88.2836C226.602 77.5368 182.725 71.8155 137.506 71.8155C92.2869 71.8155 48.4096 77.5339 6.55379 88.2836H6.54785ZM118.847 85.2748C118.847 91.6714 118.847 98.0679 118.847 104.464C116.375 104.553 115.14 104.604 112.667 104.722C112.667 98.3255 112.667 91.929 112.667 85.5325C115.137 85.414 116.375 85.3637 118.847 85.2748ZM97.9474 86.4387C100.616 86.2373 102.548 86.6282 103.739 87.5906C104.929 88.5531 105.525 90.1048 105.525 92.237C105.525 93.8687 105.163 95.1213 104.442 96.0009C103.721 96.8804 102.691 97.523 101.355 97.9376C101.355 98.0235 101.355 98.0679 101.355 98.1538C102.91 100.461 104.463 102.771 106.012 105.083C103.142 105.255 101.708 105.353 98.8379 105.566C97.3537 103.215 96.6146 102.039 95.1305 99.6996C92.3759 99.9246 90.9986 100.043 88.244 100.304C88.244 102.765 88.244 103.996 88.244 106.457C85.7804 106.691 84.5485 106.816 82.0848 107.076C82.0848 100.68 82.0848 94.2833 82.0848 87.8868C87.3654 87.3389 92.649 86.8562 97.9444 86.4416L97.9474 86.4387ZM57.5905 91.0791C61.0931 94.5409 64.5809 98.0146 68.0567 101.503C68.122 101.494 68.1547 101.491 68.217 101.482C68.217 97.5052 68.217 93.5252 68.217 89.5481C70.5649 89.2342 71.7404 89.0831 74.0912 88.7959C74.0912 95.1924 74.0912 101.589 74.0912 107.985C71.2536 108.332 69.8377 108.516 67.003 108.9C63.4737 105.365 59.9325 101.844 56.3765 98.3344C56.3112 98.3433 56.2785 98.3492 56.2162 98.361C56.2162 102.4 56.2162 106.443 56.2162 110.482C53.8831 110.849 52.7196 111.039 50.3895 111.432C50.3895 105.036 50.3895 98.6394 50.3895 92.2429C53.2657 91.7572 54.7054 91.5233 57.5846 91.0791H57.5905ZM19.6439 98.3877C22.069 97.828 23.2831 97.5526 25.7111 97.0225V107.882C25.7111 109.368 26.195 110.316 27.1626 110.725C28.1303 111.133 29.5135 111.148 31.3093 110.775C33.1051 110.402 34.4913 109.816 35.4619 109.004C36.4326 108.193 36.9194 107.047 36.9194 105.557V94.6979C39.3563 94.2211 40.5763 93.9901 43.0192 93.54C43.0192 97.1943 43.0192 100.852 43.0192 104.506C43.0192 106.727 42.5502 108.575 41.6152 110.047C40.6772 111.521 39.3534 112.688 37.6436 113.559C35.9309 114.429 33.8205 115.116 31.3123 115.638C28.8041 116.159 26.6996 116.345 24.9928 116.182C23.289 116.02 21.9711 115.401 21.039 114.314C20.107 113.227 19.6439 111.575 19.6439 109.354V98.3877ZM255.359 223.635C255.359 245.49 249.778 267.155 239.217 286.288C228.653 305.43 213.286 321.703 194.782 333.347C176.42 344.899 157.177 355.356 137.5 364.471C117.823 355.356 98.5796 344.902 80.2178 333.347C61.7135 321.703 46.3467 305.43 35.7825 286.288C25.2243 267.155 19.6439 245.49 19.6439 223.635V131.179C58.0684 122.129 97.6654 117.545 137.5 117.545C177.334 117.545 216.934 122.129 255.356 131.179V223.638L255.359 223.635ZM232.904 93.7117C236.845 94.455 240.775 95.2309 244.705 96.0423C247.656 96.6257 250.657 97.8339 252.714 100.043C254.673 102.149 255.513 105.261 255.362 107.985C255.237 110.254 255.026 113.354 252.729 114.734C250.411 116.126 247.279 115.824 244.708 115.235C240.781 114.426 236.848 113.648 232.907 112.904C232.907 106.508 232.907 100.111 232.907 93.7147L232.904 93.7117ZM207.632 89.6606C213.921 90.5312 220.187 91.4937 226.448 92.5538C226.448 94.307 226.448 95.1835 226.448 96.9337C222.23 96.2022 218.003 95.533 213.77 94.9052C213.77 96.0867 213.77 96.679 213.77 97.8606C217.807 98.4588 221.838 99.0955 225.86 99.7855V103.843C221.838 103.15 217.807 102.513 213.77 101.918V105.305C218.104 105.948 222.428 106.632 226.744 107.384V111.791C220.386 110.71 214.022 109.73 207.635 108.844C207.635 102.448 207.635 96.0512 207.635 89.6547L207.632 89.6606ZM188.872 87.4662C188.872 92.2429 188.872 97.0166 188.872 101.793C193.063 102.211 197.251 102.667 201.431 103.185C201.431 105.131 201.431 106.105 201.431 108.051C195.197 107.301 188.961 106.647 182.71 106.087C182.71 99.6907 182.71 93.2942 182.71 86.8977C185.176 87.1109 186.408 87.2264 188.872 87.4692V87.4662ZM167.595 85.8049C170.837 92.4117 174.066 99.0244 177.287 105.643C174.559 105.436 173.196 105.341 170.466 105.166C169.869 103.914 169.572 103.289 168.976 102.036C165.319 101.826 161.662 101.645 158.005 101.491C157.42 102.682 157.126 103.28 156.541 104.473C153.811 104.373 152.442 104.334 149.711 104.269C152.965 97.9731 156.224 91.6832 159.498 85.3992C162.199 85.5118 164.9 85.645 167.598 85.802L167.595 85.8049ZM137.592 97.5171C139.506 93.3327 141.421 89.1513 143.341 84.9698C146.259 85.0024 147.717 85.0291 150.634 85.1031C147.452 91.4433 144.279 97.7895 141.118 104.142C138.245 104.121 136.805 104.121 133.932 104.142C130.768 97.7895 127.598 91.4433 124.416 85.1031C127.322 85.0291 128.776 85.0054 131.682 84.9728C133.602 89.1542 135.517 93.3356 137.432 97.52C137.497 97.52 137.529 97.52 137.595 97.52L137.592 97.5171ZM166.838 97.4786C164.173 97.3275 162.84 97.2624 160.175 97.1469C161.466 94.5379 162.11 93.232 163.398 90.6319L163.561 90.6408C164.657 92.921 165.749 95.1983 166.838 97.4815V97.4786ZM88.25 95.9416C88.25 94.384 88.25 93.6022 88.25 92.0445C90.9838 91.7839 93.7235 91.547 96.4603 91.3338C97.2528 91.2716 97.8257 91.3841 98.1789 91.6714C98.5321 91.9586 98.7073 92.4354 98.7073 93.0958C98.7073 93.7591 98.5321 94.2655 98.1789 94.6149C97.8257 94.9644 97.2558 95.1687 96.4603 95.2309C93.7205 95.4441 90.9838 95.681 88.25 95.9416ZM69.8674 69.553L65.9938 60.515C78.229 57.6218 90.7493 55.4541 103.498 54.0622L102.845 50.7041C93.0141 51.3289 83.2543 52.2143 73.5748 53.3604L60.5707 17.7146C61.8233 17.3385 63.0819 16.9743 64.3434 16.616C72.9306 23.5722 86.4928 28.9618 99.8708 28.9618C113.982 28.9618 127.894 22.9681 135.559 6.5H139.444C147.108 22.971 161.018 28.9618 175.132 28.9618C188.51 28.9618 202.075 23.5722 210.659 16.616C211.921 16.9743 213.179 17.3385 214.432 17.7146L201.428 53.3604C191.748 52.2143 181.989 51.3289 172.158 50.7041L171.505 54.0622C184.256 55.4541 196.774 57.6218 209.012 60.515L205.138 69.553C182.772 66.7131 160.175 65.2798 137.503 65.2798C114.831 65.2798 92.2334 66.7131 69.8674 69.553Z" fill="url(#paint0_linear_3740_77)"/>
<path d="M43.0194 93.5431C43.0194 97.1974 43.0194 100.855 43.0194 104.509C43.0194 106.73 42.5504 108.578 41.6154 110.05C40.6774 111.524 39.3535 112.691 37.6438 113.562C35.9311 114.432 33.8206 115.12 31.3124 115.641C28.8042 116.162 26.6997 116.348 24.9929 116.186C23.2891 116.023 21.9712 115.404 21.0392 114.317C20.1071 113.23 19.6441 111.578 19.6441 109.357V98.3909C22.0692 97.8312 23.2832 97.5558 25.7113 97.0257V107.885C25.7113 109.372 26.1951 110.319 27.1628 110.728C28.1304 111.137 29.5136 111.151 31.3095 110.778C33.1053 110.405 34.4915 109.819 35.4621 109.007C36.4327 108.196 36.9195 107.05 36.9195 105.56V94.701C39.3565 94.2242 40.5765 93.9933 43.0194 93.5431ZM74.0914 88.799C74.0914 95.1956 74.0914 101.592 74.0914 107.989C71.2537 108.335 69.8378 108.519 67.0031 108.904C63.4738 105.368 59.9327 101.847 56.3767 98.3376C56.3113 98.3464 56.2787 98.3524 56.2164 98.3642C56.2164 102.403 56.2164 106.446 56.2164 110.485C53.8833 110.852 52.7197 111.042 50.3896 111.436C50.3896 105.039 50.3896 98.6426 50.3896 92.2461C53.2659 91.7604 54.7055 91.5265 57.5847 91.0823C61.0873 94.5441 64.5751 98.0177 68.0509 101.506C68.1162 101.497 68.1489 101.494 68.2112 101.485C68.2112 97.5084 68.2112 93.5283 68.2112 89.5512C70.5591 89.2373 71.7346 89.0863 74.0855 88.799H74.0914ZM106.012 105.081C103.142 105.252 101.708 105.35 98.838 105.563C97.3539 103.212 96.6148 102.036 95.1306 99.6968C92.376 99.9219 90.9988 100.04 88.2442 100.301C88.2442 102.762 88.2442 103.994 88.2442 106.455C85.7805 106.689 84.5487 106.813 82.085 107.074C82.085 100.677 82.085 94.2805 82.085 87.884C87.3656 87.3361 92.6491 86.8534 97.9445 86.4389C100.613 86.2375 102.545 86.6284 103.736 87.5908C104.926 88.5533 105.523 90.105 105.523 92.2372C105.523 93.8689 105.16 95.1215 104.439 96.0011C103.718 96.8806 102.688 97.5232 101.352 97.9378C101.352 98.0237 101.352 98.0681 101.352 98.154C102.908 100.461 104.46 102.771 106.009 105.084L106.012 105.081ZM98.1761 94.6181C98.5293 94.2687 98.7044 93.7623 98.7044 93.0989C98.7044 92.4356 98.5293 91.9618 98.1761 91.6745C97.8258 91.3873 97.2529 91.2747 96.4574 91.3369C93.7177 91.5501 90.9809 91.787 88.2471 92.0476C88.2471 93.6053 88.2471 94.3871 88.2471 95.9448C90.9809 95.6842 93.7207 95.4473 96.4574 95.2341C97.25 95.1719 97.8229 94.9675 98.1761 94.6181ZM112.667 104.719C112.667 98.3227 112.667 91.9262 112.667 85.5297C115.137 85.4113 116.375 85.3609 118.847 85.2721C118.847 91.6686 118.847 98.0651 118.847 104.462C116.375 104.55 115.14 104.601 112.667 104.719ZM137.426 97.5173C137.491 97.5173 137.524 97.5173 137.589 97.5173C139.504 93.3329 141.418 89.1515 143.339 84.97C146.256 85.0026 147.714 85.0293 150.632 85.1033C147.45 91.4435 144.277 97.7897 141.115 104.142C138.242 104.121 136.802 104.121 133.929 104.142C130.765 97.7897 127.595 91.4435 124.413 85.1033C127.319 85.0293 128.773 85.0056 131.679 84.973C133.6 89.1544 135.514 93.3358 137.429 97.5202L137.426 97.5173ZM168.973 102.039C165.316 101.829 161.659 101.648 158.002 101.494C157.417 102.685 157.123 103.283 156.539 104.476C153.808 104.376 152.439 104.337 149.709 104.272C152.962 97.9763 156.221 91.6864 159.495 85.4024C162.196 85.5149 164.897 85.6482 167.595 85.8051C170.837 92.4119 174.066 99.0246 177.287 105.643C174.559 105.436 173.197 105.341 170.466 105.166C169.869 103.914 169.572 103.289 168.976 102.036L168.973 102.039ZM166.833 97.4788C165.74 95.1985 164.648 92.9183 163.556 90.6381L163.392 90.6292C162.104 93.2322 161.457 94.5352 160.169 97.1441C162.834 97.2596 164.167 97.3248 166.833 97.4758V97.4788ZM182.707 106.084C182.707 99.6879 182.707 93.2914 182.707 86.8949C185.174 87.1081 186.405 87.2236 188.869 87.4664C188.869 92.2431 188.869 97.0168 188.869 101.793C193.06 102.211 197.249 102.667 201.428 103.185C201.428 105.131 201.428 106.105 201.428 108.051C195.195 107.302 188.958 106.647 182.707 106.087V106.084ZM213.764 97.8637C217.801 98.4619 221.832 99.0986 225.854 99.7886V103.846C221.832 103.153 217.801 102.516 213.764 101.921V105.309C218.098 105.951 222.423 106.635 226.739 107.387V111.794C220.38 110.713 214.016 109.733 207.629 108.847C207.629 102.451 207.629 96.0544 207.629 89.6578C213.919 90.5285 220.185 91.4909 226.445 92.5511C226.445 94.3042 226.445 95.1808 226.445 96.9309C222.227 96.1995 218 95.5302 213.767 94.9024C213.767 96.084 213.767 96.6762 213.767 97.8578L213.764 97.8637ZM252.708 100.04C254.667 102.146 255.507 105.258 255.356 107.983C255.231 110.251 255.02 113.352 252.723 114.732C250.405 116.123 247.273 115.821 244.703 115.232C240.776 114.424 236.843 113.645 232.901 112.901C232.901 106.505 232.901 100.108 232.901 93.7119C236.843 94.4552 240.773 95.2311 244.703 96.0425C247.653 96.6259 250.654 97.8341 252.711 100.043L252.708 100.04ZM238.998 99.5843C238.998 102.845 238.998 106.105 238.998 109.369C240.725 109.709 241.589 109.884 243.313 110.242C245.109 110.612 246.457 110.515 247.356 109.937C248.253 109.36 248.701 108.214 248.701 106.493C248.701 104.773 248.253 103.428 247.356 102.466C246.46 101.503 245.112 100.831 243.313 100.458C241.589 100.103 240.725 99.9278 238.998 99.5843ZM176.984 163.268V243.429C176.984 262.393 158.634 267.783 137.497 267.783C116.36 267.783 98.0098 262.393 98.0098 243.429V163.268H58.9294V244.113C58.9294 294.687 104.62 300.447 137.5 300.447C170.38 300.447 216.071 294.687 216.071 244.113V163.268H176.987H176.984ZM270.082 81.9554C250.948 77.0425 231.515 73.2075 211.891 70.4594L218.065 55.9458L210.517 54.1601C209.775 53.9854 209.033 53.8137 208.291 53.6419L222.954 13.4475L209.172 9.40528L206.53 11.5463C198.371 18.159 186.043 22.4293 175.129 22.4293C168.691 22.4293 162.971 21.0197 158.13 18.2449C152.695 15.1266 148.402 10.2493 145.381 3.7491L143.635 -0.00292969H131.365L129.619 3.7491C126.594 10.2463 122.305 15.1236 116.87 18.2449C112.029 21.0226 106.309 22.4323 99.871 22.4323C88.9566 22.4323 76.6293 18.159 68.4695 11.5493L65.8277 9.40824L52.0459 13.4505L66.7093 53.6449C65.9642 53.8137 65.2251 53.9884 64.483 54.1631L56.9347 55.9488L63.1087 70.4624C43.4824 73.2105 24.049 77.0455 4.91841 81.9583L0.00292969 83.2199V223.635C0.00292969 236.289 1.61471 248.907 4.79078 261.138C7.91935 273.19 12.5588 284.831 18.5785 295.738C24.6011 306.651 31.9833 316.787 40.5141 325.861C49.1815 335.077 59.0155 343.173 69.7399 349.922C90.5416 363.011 112.436 374.741 134.814 384.789L137.5 385.997L140.186 384.789C162.564 374.741 184.458 363.008 205.26 349.922C215.987 343.173 225.818 335.077 234.486 325.861C243.02 316.787 250.399 306.654 256.421 295.738C262.441 284.829 267.081 273.187 270.209 261.138C273.385 248.907 274.997 236.289 274.997 223.635V83.2199L270.082 81.9583V81.9554ZM65.9909 60.5182C78.2262 57.6249 90.7465 55.4572 103.495 54.0654L102.842 50.7072C93.0113 51.3321 83.2515 52.2175 73.5719 53.3635L60.5679 17.7178C61.8205 17.3417 63.079 16.9774 64.3406 16.6191C72.9278 23.5753 86.4899 28.965 99.868 28.965C113.979 28.965 127.892 22.9712 135.556 6.50315H139.441C147.105 22.9742 161.015 28.965 175.129 28.965C188.507 28.965 202.072 23.5753 210.656 16.6191C211.918 16.9774 213.176 17.3417 214.429 17.7178L201.425 53.3635C191.745 52.2175 181.986 51.3321 172.155 50.7072L171.502 54.0654C184.253 55.4572 196.771 57.6249 209.009 60.5182L205.135 69.5562C182.769 66.7163 160.172 65.283 137.5 65.283C114.828 65.283 92.2306 66.7163 69.8645 69.5562L65.9909 60.5182ZM268.452 223.635C268.452 272.634 243.311 318.259 201.766 344.396C181.261 357.299 159.795 368.821 137.497 378.834C115.202 368.821 93.7355 357.299 73.2276 344.396C31.6894 318.259 6.548 272.637 6.548 223.635V88.2838C48.4038 77.537 92.2811 71.8157 137.5 71.8157C182.719 71.8157 226.596 77.5341 268.452 88.2838V223.635ZM137.5 117.542C97.6655 117.542 58.0656 122.126 19.6441 131.176V223.635C19.6441 245.49 25.2245 267.155 35.7827 286.288C46.3468 305.431 61.7136 321.703 80.2179 333.347C98.5798 344.9 117.823 355.356 137.5 364.471C157.177 355.356 176.42 344.902 194.782 333.347C213.286 321.703 228.65 305.431 239.217 286.288C249.775 267.155 255.359 245.49 255.359 223.635V131.179C216.934 122.129 177.337 117.545 137.503 117.545L137.5 117.542ZM154.796 225.326H140.771V124.086C153.143 124.166 165.497 124.697 177.8 125.668C160.896 144.227 150.593 168.877 150.593 195.929C150.593 206.137 152.062 216.001 154.796 225.323V225.326ZM97.1965 125.668C109.5 124.694 121.854 124.163 134.226 124.086V225.326H120.201C122.935 216.001 124.404 206.137 124.404 195.932C124.404 168.88 114.101 144.23 97.1965 125.671V125.668ZM233.48 283.138C232.117 285.607 230.669 288.024 229.14 290.387C225.064 289.262 221.054 287.876 217.127 286.217C214.759 285.219 212.443 284.127 210.176 282.954C208.742 284.689 207.186 286.33 205.512 287.882C211.737 291.249 218.344 294 225.251 296.064C216.073 308.67 204.527 319.494 191.291 327.824C175.067 338.035 158.1 347.396 140.777 355.703V306.962C139.655 306.974 138.56 306.979 137.503 306.979C136.446 306.979 135.351 306.974 134.229 306.962V355.703C116.903 347.393 99.9392 338.032 83.7116 327.824C70.476 319.497 58.9294 308.67 49.7514 296.064C56.6557 294 63.2631 291.249 69.4905 287.882C67.8135 286.333 66.2581 284.689 64.8274 282.954C62.5596 284.127 60.2414 285.216 57.8756 286.217C53.9486 287.876 49.9384 289.262 45.863 290.387C44.3373 288.024 42.8858 285.607 41.5233 283.138C32.8233 267.371 27.6822 249.793 26.4741 231.859H52.3843V225.326H26.204C26.1951 224.763 26.1892 224.201 26.1892 223.635V136.376C46.7831 131.75 67.7214 128.419 88.8349 126.399C88.918 126.482 89.0041 126.562 89.0872 126.645C98.1078 135.645 105.193 146.125 110.138 157.793C115.259 169.869 117.853 182.7 117.853 195.932C117.853 206.015 116.342 215.865 113.359 225.326H104.555V231.859H111.044C110.75 232.599 110.45 233.337 110.138 234.068C108.524 237.873 106.68 241.551 104.62 245.093C104.861 248.2 105.802 250.735 107.526 252.834C111.78 246.31 115.324 239.283 118.049 231.859H134.223V261.206C135.289 261.238 136.378 261.253 137.497 261.253C138.616 261.253 139.705 261.235 140.771 261.206V231.859H156.945C159.667 239.28 163.214 246.31 167.468 252.834C169.195 250.735 170.136 248.203 170.374 245.093C168.314 241.551 166.467 237.873 164.856 234.068C164.544 233.334 164.244 232.596 163.95 231.859H170.439V225.326H161.635C158.652 215.865 157.141 206.015 157.141 195.932C157.141 182.7 159.738 169.869 164.856 157.793C169.801 146.125 176.883 135.645 185.907 126.645C185.99 126.562 186.076 126.482 186.159 126.399C207.273 128.419 228.211 131.75 248.805 136.376V223.638C248.805 224.201 248.799 224.763 248.79 225.329H222.613V231.862H248.523C247.315 249.799 242.177 267.374 233.474 283.141L233.48 283.138Z" fill="#FFFFFF"/>
</g>
<defs>
<linearGradient id="paint0_linear_3740_77" x1="0.501448" y1="98.7312" x2="271.989" y2="255.839" gradientUnits="userSpaceOnUse">
<stop stop-color="#5DC3EC"/>
<stop offset="1" stop-color="#591A7E"/>
</linearGradient>
<clipPath id="clip0_3740_77">
<rect width="275" height="386" fill="white"/>
</clipPath>
</defs>
</svg>
